<?xml version="1.0" encoding="UTF-8" standalone="no"?>
<!-- Created with Inkscape (http://www.inkscape.org/) -->

<svg
   xmlns:dc="http://purl.org/dc/elements/1.1/"
   xmlns:cc="http://creativecommons.org/ns#"
   xmlns:rdf="http://www.w3.org/1999/02/22-rdf-syntax-ns#"
   xmlns:svg="http://www.w3.org/2000/svg"
   xmlns="http://www.w3.org/2000/svg"
   xmlns:sodipodi="http://sodipodi.sourceforge.net/DTD/sodipodi-0.dtd"
   xmlns:inkscape="http://www.inkscape.org/namespaces/inkscape"
   width="18.14105mm"
   height="25.056351mm"
   viewBox="0 0 18.14105 25.056351"
   version="1.1"
   id="svg8"
   inkscape:version="0.92.4 (5da689c313, 2019-01-14)"
   sodipodi:docname="thetakenking.svg">
  <defs
     id="defs2" />
  <sodipodi:namedview
     id="base"
     pagecolor="#ffffff"
     bordercolor="#666666"
     borderopacity="1.0"
     inkscape:pageopacity="0.0"
     inkscape:pageshadow="2"
     inkscape:zoom="3.959798"
     inkscape:cx="73.135687"
     inkscape:cy="31.326639"
     inkscape:document-units="mm"
     inkscape:current-layer="layer1"
     showgrid="false"
     fit-margin-top="0"
     fit-margin-left="0"
     fit-margin-right="0"
     fit-margin-bottom="0"
     inkscape:window-width="2560"
     inkscape:window-height="1377"
     inkscape:window-x="-8"
     inkscape:window-y="-8"
     inkscape:window-maximized="1" />
  <metadata
     id="metadata5">
    <rdf:RDF>
      <cc:Work
         rdf:about="">
        <dc:format>image/svg+xml</dc:format>
        <dc:type
           rdf:resource="http://purl.org/dc/dcmitype/StillImage" />
        <dc:title></dc:title>
      </cc:Work>
    </rdf:RDF>
  </metadata>
  <g
     inkscape:label="Layer 1"
     inkscape:groupmode="layer"
     id="layer1"
     transform="translate(-64.380163,-125.91128)">
    <path
       style="fill:#000000;fill-opacity:1;stroke:none;stroke-width:0.26458332px;stroke-linecap:butt;stroke-linejoin:miter;stroke-opacity:1"
       d="m 73.450963,125.91128 -0.28422,3.59151 -1.06918,2.3549 -0.53434,-0.48421 -0.48421,-3.7083 -0.18397,3.64164 0.0165,2.35489 -1.10226,1.11931 c -1.04094,-1.13502 -2.23995,-1.74279 -3.40754,-2.45566 -0.66471,-0.0542 -1.31626,-0.10629 -2.02158,-0.41755 l 1.88774,1.31982 -0.0165,0.75189 -1.00252,-0.7183 c 8.52714,11.34842 6.928,11.37756 8.21862,17.70641 0.15346,-4.31546 1.08738,-9.03553 8.35194,-17.03824 -0.0598,-0.49869 -0.343,-0.38179 -0.56947,-0.42219 0.17168,-0.5464 0.82224,-0.88763 1.27124,-1.31517 -3.07503,0.54297 -3.86584,1.7043 -4.87774,2.80603 -0.42548,-0.14844 -0.94978,-0.69244 -1.55339,-1.55339 l -0.30076,-5.2617 -0.56792,3.95894 c -0.53824,-0.77769 -1.0196,-1.60105 -1.33636,-2.55592 z m 0.016,6.41046 0.81339,1.48156 -0.7028,1.15135 -1.03921,-1.3224 z m -1.94562,2.76004 1.01596,0.99219 -0.82682,1.03973 -1.00407,-1.29967 z m 3.98064,0.0238 0.96842,0.81494 -0.95653,1.16943 -0.79169,-1.22834 z m -1.84278,2.26808 1.21646,0.86196 -1.3348,2.90577 -1.15755,-2.882 z"
       id="path8463"
       inkscape:connector-curvature="0" />
  </g>
</svg>
